<?xml version="1.0" encoding="utf-8"?>
<!-- Generator: Adobe Illustrator 23.0.1, SVG Export Plug-In . SVG Version: 6.00 Build 0)  -->
<svg version="1.1" id="Layer_1" xmlns="http://www.w3.org/2000/svg" xmlns:xlink="http://www.w3.org/1999/xlink" x="0px" y="0px"
	 viewBox="0 0 512 512" style="enable-background:new 0 0 512 512;" xml:space="preserve">
<style type="text/css">
	.st0{fill:#2F65B0;}
	.st1{fill:none;}
	.st2{fill:#FFFFFF;}
	.st3{fill:#B3B3B3;}
</style>
<g>
	<g>
		<g>
			<path class="st0" d="M511.7,256c0,141.4-114.5,256-255.7,256C114.8,512,0.3,397.4,0.3,256C0.3,114.6,114.8,0,256,0
				C397.2,0,511.7,114.6,511.7,256z"/>
			<g>
				<path class="st1" d="M184.9,245.8c-2.9,10.4-12.3,17.6-23.1,17.6h-15.9c0.2,0.4,0.4,0.7,0.6,1.1c0,0,0,0,0,0
					c0,0.1,0.1,0.2,0.1,0.2c0.5,0.8,1,1.6,1.6,2.4c0.1,0.2,0.3,0.4,0.4,0.6c0.3,0.4,0.6,0.7,0.9,1.1c0.2,0.2,0.4,0.4,0.6,0.6
					c0.5,0.6,1,1.1,1.5,1.5c0.3,0.3,0.5,0.5,0.8,0.7c0.3,0.2,0.6,0.5,0.9,0.8c0.4,0.3,0.8,0.6,1.3,0.9c0.3,0.2,0.7,0.4,1,0.7
					c0.4,0.3,0.8,0.5,1.3,0.8c0.3,0.1,0.5,0.3,0.8,0.4c0.6,0.3,1.3,0.6,1.9,0.9c0.2,0.1,0.3,0.1,0.5,0.2c0.6,0.2,1.2,0.5,1.8,0.7
					c0.2,0.1,0.4,0.1,0.7,0.2c0.7,0.2,1.5,0.4,2.3,0.6c0.1,0,0.1,0,0.2,0c0.7,0.1,1.5,0.3,2.2,0.3c0.2,0,0.4,0,0.6,0
					c0.8,0.1,1.7,0.1,2.5,0.1c1.6,0,3.1-0.2,4.6-0.4c0.3,0,0.6-0.1,0.9-0.1c12.5-2.6,21.9-13.6,21.9-26.9c0-0.3,0-0.5,0-0.8
					c0-0.7,0-1.4-0.1-2c0-0.3-0.1-0.6-0.1-0.9c-0.1-0.6-0.2-1.3-0.3-1.9c0-0.2-0.1-0.5-0.2-0.7c-0.2-0.7-0.3-1.3-0.5-2
					c-0.1-0.1-0.1-0.3-0.2-0.4c-0.2-0.7-0.5-1.4-0.8-2.1c0-0.1-0.1-0.2-0.1-0.3c-0.3-0.7-0.7-1.5-1.1-2.2c0,0,0-0.1-0.1-0.1
					c-0.4-0.7-0.9-1.5-1.4-2.2l0,0c-0.5-0.7-1.1-1.4-1.6-2.1l0,0c-0.6-0.7-1.2-1.3-1.8-2c0,0,0,0,0,0l0,0c-0.1-0.1-0.2-0.2-0.3-0.3
					l-0.6,2.3L184.9,245.8z"/>
				<path class="st1" d="M124.2,225.4c1.7-13.1-7.5-25.2-20.6-26.9c-1.5-0.2-3-0.3-4.5-0.2c10.7-14.4,25.4-25.3,42.4-31.1l40.8,31.4
					l0.9,0.7l38.4-136.5c0.9-3.3,3.6-6,6.9-6.9c5.3-1.5,10.8,1.6,12.3,6.9l83.6,297c2.7,9.5,10.9,14.4,18.3,11c4-1.9,7.2-5.9,8.6-11
					l26.4-93.8c2.9-10.3,12.3-17.5,23.1-17.5h81C478,127,378.4,29.6,256,29.6c-122.4,0-222.1,97.4-226,219h91.2l0,0l0.1-0.5
					L124.2,225.4z"/>
				<path class="st1" d="M151.2,248.6c10.7,0,20.2-7.1,23.1-17.5l1.2-4.4l0.7-2.5c-0.4-0.1-0.7-0.2-1-0.2v0c0,0,0,0-0.1,0
					c-0.8-0.1-1.6-0.3-2.4-0.3c-0.8-0.1-1.7-0.1-2.6-0.1c-0.9,0-1.8,0-2.7,0.1c-0.3,0-0.6,0.1-0.9,0.1c-0.6,0.1-1.2,0.2-1.8,0.3
					c-0.3,0.1-0.7,0.2-1,0.2c-0.5,0.1-1,0.2-1.5,0.4c-0.4,0.1-0.7,0.2-1.1,0.4c-0.5,0.2-0.9,0.3-1.4,0.5c-0.4,0.1-0.7,0.3-1,0.5
					c-0.4,0.2-0.9,0.4-1.3,0.6c-0.3,0.2-0.7,0.4-1,0.6c-0.4,0.2-0.8,0.5-1.2,0.7c-0.3,0.2-0.6,0.4-1,0.7c-0.4,0.3-0.7,0.6-1.1,0.8
					c-0.3,0.3-0.6,0.5-0.9,0.8c-0.4,0.3-0.7,0.6-1,0.9c-0.3,0.3-0.6,0.5-0.8,0.8c-0.3,0.3-0.6,0.7-0.9,1c-0.3,0.3-0.5,0.6-0.8,0.9
					c-0.3,0.4-0.6,0.7-0.8,1.1c-0.2,0.3-0.5,0.6-0.7,1c-0.2,0.4-0.5,0.8-0.7,1.2c-0.2,0.3-0.4,0.7-0.6,1c-0.2,0.4-0.4,0.8-0.6,1.3
					c-0.2,0.3-0.3,0.7-0.5,1c-0.2,0.5-0.3,0.9-0.5,1.4c-0.1,0.4-0.3,0.7-0.4,1c-0.2,0.5-0.3,1.1-0.4,1.6c-0.1,0.3-0.2,0.6-0.2,0.9
					c-0.2,0.8-0.3,1.5-0.4,2.4c0,0.1,0,0.2,0,0.3c0,0,0,0,0,0c0,0.1,0,0.3,0,0.5h3.4H151.2z"/>
				<path class="st1" d="M388.7,281.1l-41,149.9c-0.9,3.4-3.6,6.1-7,7c-5.3,1.5-10.8-1.7-12.3-7l-81.5-297.7
					c-3-11-12.4-16.8-21.1-13c-4.7,2.1-8.5,6.9-10.2,13l-20.5,75.1l0.3,0.3l19.7,15.2c10.5,8.1,25.5,6.1,33.6-4.4
					c0.9-1.2,1.7-2.5,2.4-3.8c7.2,16.5,9.1,34.7,5.7,52.4l-85.8,35.5c-12.2,5.1-18,19.1-13,31.4c0.6,1.4,1.3,2.7,2.1,4
					c-17.8-2-34.6-9.4-48.1-21.2l7-53.1l0.1-1.1l0,0H30c3.9,121.6,103.6,219,226,219c122.4,0,222.1-97.4,226-219h-70.2
					C401,263.4,391.5,270.7,388.7,281.1z"/>
				<path class="st2" d="M256,14.7C123.1,14.7,15,123,15,256c0,133,108.1,241.3,241,241.3c132.9,0,241-108.2,241-241.3
					C496.9,123,388.8,14.7,256,14.7z M256,482.4c-122.4,0-222.1-97.4-226-219h89.2l2-14.8H30c3.9-121.6,103.6-219,226-219
					c122.4,0,222.1,97.4,226,219h-81c-10.7,0-20.2,7.2-23.1,17.5l-26.4,93.8c-1.4,5.1-4.6,9.2-8.6,11c-7.4,3.4-15.6-1.5-18.3-11
					l-83.6-297c-1.5-5.3-7-8.4-12.3-6.9c-3.3,1-6,3.6-6.9,6.9l-38.4,136.5l-1.3,4.4l-5.8,20.5l-0.7,2.5l-1.2,4.4
					c-2.9,10.4-12.3,17.5-23.1,17.5h-4.9h-3.4c-0.1,0.8-0.1,1.5-0.1,2.3c0,0.8,0.1,1.7,0.1,2.5c0,0.2,0,0.4,0.1,0.6
					c0.1,0.8,0.2,1.6,0.4,2.3c0,0.2,0.1,0.4,0.1,0.6c0.1,0.5,0.3,1.1,0.4,1.6c0.1,0.3,0.2,0.7,0.3,1c0.1,0.4,0.3,0.8,0.4,1.2
					c0.2,0.6,0.5,1.2,0.7,1.8c0.1,0.2,0.2,0.5,0.4,0.7c0,0.1,0.1,0.1,0.1,0.2h15.9c10.8,0,20.3-7.2,23.1-17.6l3.4-12.4l0.6-2.3
					l5-18.1l1.2-4.4l20.5-75.1c1.7-6.1,5.4-10.8,10.2-13c8.6-3.8,18.1,2,21.1,13L328.4,431c1.5,5.3,6.9,8.5,12.3,7
					c3.4-0.9,6.1-3.6,7-7l41-149.9c2.9-10.4,12.3-17.7,23.1-17.7h70.2C478,385,378.4,482.4,256,482.4z"/>
				<path class="st3" d="M251.2,215.6c-0.7,1.4-1.5,2.6-2.4,3.8c-8.1,10.5-23.1,12.5-33.6,4.4l-19.7-15.2l-0.3-0.3l-1.2,4.4l-5,18.1
					c0.1,0.1,0.2,0.2,0.3,0.3l0,0c0,0,0,0,0,0c0.6,0.6,1.2,1.3,1.8,2l0,0c0.6,0.7,1.1,1.4,1.6,2.1l0,0c0.5,0.7,0.9,1.5,1.4,2.2
					c0,0,0,0.1,0.1,0.1c0.4,0.7,0.8,1.4,1.1,2.2c0,0.1,0.1,0.2,0.1,0.3c0.3,0.7,0.6,1.4,0.8,2.1c0,0.2,0.1,0.3,0.2,0.4
					c0.2,0.7,0.4,1.3,0.5,2c0,0.2,0.1,0.4,0.2,0.7c0.1,0.6,0.2,1.3,0.3,1.9c0,0.3,0.1,0.6,0.1,0.9c0.1,0.7,0.1,1.3,0.1,2
					c0,0.3,0,0.5,0,0.8c0,13.2-9.4,24.3-21.9,26.9c-0.3,0.1-0.6,0.1-0.9,0.1c-1.5,0.3-3,0.4-4.6,0.4c-0.8,0-1.7,0-2.5-0.1
					c-0.2,0-0.4,0-0.6,0c-0.8-0.1-1.5-0.2-2.2-0.3c-0.1,0-0.1,0-0.2,0c-0.8-0.2-1.5-0.4-2.3-0.6c-0.2-0.1-0.5-0.1-0.7-0.2
					c-0.6-0.2-1.2-0.4-1.8-0.7c-0.2-0.1-0.3-0.1-0.5-0.2c-0.7-0.3-1.3-0.6-1.9-0.9c-0.3-0.1-0.5-0.3-0.8-0.4
					c-0.4-0.2-0.8-0.5-1.3-0.8c-0.3-0.2-0.7-0.4-1-0.7c-0.4-0.3-0.8-0.6-1.3-0.9c-0.3-0.3-0.6-0.5-0.9-0.8c-0.3-0.2-0.5-0.4-0.8-0.7
					c-0.5-0.5-1-1-1.5-1.5c-0.2-0.2-0.4-0.4-0.6-0.6c-0.3-0.3-0.6-0.7-0.9-1.1c-0.2-0.2-0.3-0.4-0.4-0.6c-0.6-0.8-1.1-1.6-1.6-2.4
					c0-0.1-0.1-0.2-0.1-0.2c0,0,0,0,0,0c-0.2-0.4-0.4-0.7-0.6-1.1c0-0.1-0.1-0.1-0.1-0.2c-0.1-0.2-0.2-0.5-0.4-0.7
					c-0.3-0.6-0.5-1.2-0.7-1.8c-0.2-0.4-0.3-0.8-0.4-1.2c-0.1-0.3-0.2-0.7-0.3-1c-0.2-0.5-0.3-1.1-0.4-1.6c0-0.2-0.1-0.4-0.1-0.6
					c-0.2-0.8-0.3-1.5-0.4-2.3c0-0.2-0.1-0.4-0.1-0.6c-0.1-0.8-0.1-1.6-0.1-2.5c0-0.8,0.1-1.6,0.1-2.3c0-0.2,0-0.3,0-0.5
					c0,0,0,0,0,0c0-0.1,0-0.2,0-0.3c0.1-0.8,0.2-1.6,0.4-2.4c0.1-0.3,0.2-0.6,0.2-0.9c0.1-0.5,0.3-1.1,0.4-1.6
					c0.1-0.4,0.2-0.7,0.4-1c0.2-0.5,0.3-0.9,0.5-1.4c0.2-0.4,0.3-0.7,0.5-1c0.2-0.4,0.4-0.9,0.6-1.3c0.2-0.4,0.4-0.7,0.6-1
					c0.2-0.4,0.5-0.8,0.7-1.2c0.2-0.3,0.4-0.6,0.7-1c0.3-0.4,0.5-0.7,0.8-1.1c0.3-0.3,0.5-0.6,0.8-0.9c0.3-0.3,0.6-0.7,0.9-1
					c0.3-0.3,0.6-0.6,0.8-0.8c0.3-0.3,0.7-0.6,1-0.9c0.3-0.3,0.6-0.5,0.9-0.8c0.4-0.3,0.7-0.5,1.1-0.8c0.3-0.2,0.6-0.4,1-0.7
					c0.4-0.3,0.8-0.5,1.2-0.7c0.3-0.2,0.7-0.4,1-0.6c0.4-0.2,0.9-0.4,1.3-0.6c0.4-0.2,0.7-0.3,1-0.5c0.5-0.2,0.9-0.4,1.4-0.5
					c0.4-0.1,0.7-0.3,1.1-0.4c0.5-0.1,1-0.3,1.5-0.4c0.3-0.1,0.7-0.2,1-0.2c0.6-0.1,1.2-0.2,1.8-0.3c0.3,0,0.6-0.1,0.9-0.1
					c0.9-0.1,1.8-0.1,2.7-0.1c0.9,0,1.7,0,2.6,0.1c0.8,0.1,1.6,0.2,2.4,0.3c0,0,0,0,0.1,0v0c0.4,0.1,0.7,0.2,1,0.2l5.8-20.5l1.3-4.4
					l-0.9-0.7l-40.8-31.4c-17,5.8-31.8,16.7-42.4,31.1c1.5-0.1,3,0,4.5,0.2c13.1,1.7,22.4,13.8,20.6,26.9l-3,22.7l-0.1,0.5l-2,14.8
					l-0.1,1.1l-7,53.1c13.5,11.8,30.3,19.2,48.1,21.2c-0.8-1.3-1.5-2.6-2.1-4c-5.1-12.3,0.8-26.3,13-31.4l85.8-35.5
					C260.3,250.3,258.4,232,251.2,215.6z"/>
			</g>
		</g>
	</g>
</g>
</svg>
