<?xml version="1.0" encoding="utf-8"?>
<!-- Generator: Adobe Illustrator 23.0.1, SVG Export Plug-In . SVG Version: 6.00 Build 0)  -->
<svg version="1.1" id="Layer_1" xmlns="http://www.w3.org/2000/svg" xmlns:xlink="http://www.w3.org/1999/xlink" x="0px" y="0px"
	 viewBox="0 0 226 60" style="enable-background:new 0 0 226 60;" xml:space="preserve">
<style type="text/css">
	.st0{fill:none;}
	.st1{fill:#565655;}
	.st2{fill:#2F65B0;}
</style>
<path class="st0" d="z"/>
<g>
	<g>
		<g>
			<path class="st1" d="M48.6,29.2c0,1.7-0.6,3-1.8,3.9c-1.2,1-2.8,1.4-5,1.4c-2,0-3.7-0.4-5.2-1.1v-3.6c1.2,0.6,2.3,0.9,3.1,1.2
				c0.9,0.2,1.6,0.3,2.3,0.3c0.9,0,1.5-0.2,2-0.5c0.5-0.3,0.7-0.8,0.7-1.5c0-0.4-0.1-0.7-0.3-1c-0.2-0.3-0.5-0.5-0.9-0.8
				c-0.4-0.3-1.2-0.7-2.4-1.2c-1.1-0.5-2-1-2.5-1.5c-0.6-0.5-1-1-1.3-1.7c-0.3-0.6-0.5-1.4-0.5-2.3c0-1.6,0.5-2.9,1.6-3.8
				c1.1-0.9,2.6-1.4,4.5-1.4c1,0,1.9,0.1,2.7,0.3c0.9,0.2,1.8,0.5,2.7,1l-1.3,3c-1-0.4-1.8-0.7-2.4-0.8c-0.6-0.2-1.3-0.2-1.9-0.2
				c-0.7,0-1.3,0.2-1.7,0.5c-0.4,0.3-0.6,0.8-0.6,1.3c0,0.3,0.1,0.6,0.2,0.9c0.2,0.3,0.4,0.5,0.8,0.7c0.3,0.2,1.2,0.7,2.5,1.3
				c1.7,0.8,2.9,1.6,3.5,2.5C48.3,27,48.6,28,48.6,29.2z"/>
			<path class="st1" d="M64.5,21.7c0,2-0.6,3.5-1.8,4.5c-1.2,1-3,1.6-5.2,1.6h-1.7v6.5h-3.9V16h5.8c2.2,0,3.9,0.5,5.1,1.4
				C64,18.4,64.5,19.8,64.5,21.7z M55.8,24.6h1.3c1.2,0,2.1-0.2,2.7-0.7c0.6-0.5,0.9-1.2,0.9-2.1c0-0.9-0.2-1.6-0.7-2
				c-0.5-0.4-1.3-0.7-2.3-0.7h-1.8V24.6z"/>
			<path class="st1" d="M78.8,29.2c0,1.7-0.6,3-1.8,3.9c-1.2,1-2.8,1.4-5,1.4c-2,0-3.7-0.4-5.2-1.1v-3.6c1.2,0.6,2.3,0.9,3.1,1.2
				c0.9,0.2,1.6,0.3,2.3,0.3c0.9,0,1.5-0.2,2-0.5c0.5-0.3,0.7-0.8,0.7-1.5c0-0.4-0.1-0.7-0.3-1c-0.2-0.3-0.5-0.5-0.9-0.8
				c-0.4-0.3-1.2-0.7-2.4-1.2c-1.1-0.5-2-1-2.5-1.5c-0.6-0.5-1-1-1.3-1.7c-0.3-0.6-0.5-1.4-0.5-2.3c0-1.6,0.5-2.9,1.6-3.8
				c1.1-0.9,2.6-1.4,4.5-1.4c1,0,1.9,0.1,2.7,0.3c0.9,0.2,1.8,0.5,2.7,1l-1.3,3c-1-0.4-1.8-0.7-2.4-0.8c-0.6-0.2-1.3-0.2-1.9-0.2
				c-0.7,0-1.3,0.2-1.7,0.5c-0.4,0.3-0.6,0.8-0.6,1.3c0,0.3,0.1,0.6,0.2,0.9c0.2,0.3,0.4,0.5,0.8,0.7c0.3,0.2,1.2,0.7,2.5,1.3
				c1.7,0.8,2.9,1.6,3.5,2.5C78.5,27,78.8,28,78.8,29.2z M78.6,10.4v0.3c-0.7,0.7-1.3,1.4-1.9,2.1c-0.6,0.7-1,1.3-1.3,1.7h-4.5
				c-0.2-0.4-0.6-0.9-1-1.4c-0.5-0.5-1.2-1.3-2.2-2.4v-0.3h2.5c1.2,0.8,2.2,1.5,2.9,2.2c0.7-0.7,1.7-1.5,2.9-2.2H78.6z"/>
			<path class="st1" d="M92.9,29.2c0,1.7-0.6,3-1.8,3.9c-1.2,1-2.8,1.4-5,1.4c-2,0-3.7-0.4-5.2-1.1v-3.6c1.2,0.6,2.3,0.9,3.1,1.2
				c0.9,0.2,1.6,0.3,2.3,0.3c0.9,0,1.5-0.2,2-0.5c0.5-0.3,0.7-0.8,0.7-1.5c0-0.4-0.1-0.7-0.3-1c-0.2-0.3-0.5-0.5-0.9-0.8
				c-0.4-0.3-1.2-0.7-2.4-1.2c-1.1-0.5-2-1-2.5-1.5c-0.6-0.5-1-1-1.3-1.7c-0.3-0.6-0.5-1.4-0.5-2.3c0-1.6,0.5-2.9,1.6-3.8
				c1.1-0.9,2.6-1.4,4.5-1.4c1,0,1.9,0.1,2.7,0.3c0.9,0.2,1.8,0.5,2.7,1l-1.3,3c-1-0.4-1.8-0.7-2.4-0.8c-0.6-0.2-1.3-0.2-1.9-0.2
				c-0.7,0-1.3,0.2-1.7,0.5c-0.4,0.3-0.6,0.8-0.6,1.3c0,0.3,0.1,0.6,0.2,0.9c0.2,0.3,0.4,0.5,0.8,0.7c0.3,0.2,1.2,0.7,2.5,1.3
				c1.7,0.8,2.9,1.6,3.5,2.5C92.6,27,92.9,28,92.9,29.2z"/>
			<path class="st1" d="M106.7,34.3H96.2V16h10.5v3.2h-6.7v4h6.2v3.2h-6.2v4.7h6.7V34.3z"/>
			<path class="st1" d="M128.4,34.3l-1.3-4.4h-6.7l-1.3,4.4h-4.2l6.5-18.4h4.7l6.5,18.4H128.4z M126.1,26.7
				c-1.2-3.9-1.9-6.2-2.1-6.7c-0.2-0.5-0.3-0.9-0.3-1.2c-0.3,1.1-1.1,3.7-2.4,7.9H126.1z"/>
			<path class="st1" d="M151.9,16h3.9l-6.2,18.3h-4.2L139.2,16h3.9l3.4,10.9c0.2,0.6,0.4,1.4,0.6,2.2c0.2,0.9,0.3,1.5,0.4,1.8
				c0.1-0.8,0.4-2.1,0.9-4L151.9,16z"/>
			<path class="st1" d="M174.7,25.1c0,3-0.8,5.4-2.3,7c-1.5,1.6-3.7,2.4-6.5,2.4c-2.8,0-5-0.8-6.5-2.4c-1.5-1.6-2.3-4-2.3-7
				c0-3,0.8-5.4,2.3-7c1.5-1.6,3.7-2.4,6.5-2.4c2.8,0,5,0.8,6.4,2.4C174,19.7,174.7,22.1,174.7,25.1z M161.4,25.1
				c0,2,0.4,3.6,1.2,4.6c0.8,1,1.9,1.6,3.5,1.6c3.1,0,4.6-2.1,4.6-6.2c0-4.1-1.5-6.2-4.6-6.2c-1.5,0-2.7,0.5-3.5,1.6
				C161.8,21.5,161.4,23.1,161.4,25.1z"/>
			<path class="st1" d="M189.3,29.2c0,1.7-0.6,3-1.8,3.9c-1.2,1-2.8,1.4-5,1.4c-2,0-3.7-0.4-5.2-1.1v-3.6c1.2,0.6,2.3,0.9,3.1,1.2
				c0.9,0.2,1.6,0.3,2.3,0.3c0.9,0,1.5-0.2,2-0.5c0.5-0.3,0.7-0.8,0.7-1.5c0-0.4-0.1-0.7-0.3-1c-0.2-0.3-0.5-0.5-0.9-0.8
				c-0.4-0.3-1.2-0.7-2.4-1.2c-1.1-0.5-2-1-2.5-1.5c-0.6-0.5-1-1-1.3-1.7c-0.3-0.6-0.5-1.4-0.5-2.3c0-1.6,0.5-2.9,1.6-3.8
				c1.1-0.9,2.6-1.4,4.5-1.4c1,0,1.9,0.1,2.7,0.3c0.9,0.2,1.8,0.5,2.7,1l-1.3,3c-1-0.4-1.8-0.7-2.4-0.8c-0.6-0.2-1.3-0.2-1.9-0.2
				c-0.7,0-1.3,0.2-1.7,0.5c-0.4,0.3-0.6,0.8-0.6,1.3c0,0.3,0.1,0.6,0.2,0.9c0.2,0.3,0.4,0.5,0.8,0.7c0.3,0.2,1.2,0.7,2.5,1.3
				c1.7,0.8,2.9,1.6,3.5,2.5C189,27,189.3,28,189.3,29.2z M189.2,10.4v0.3c-0.7,0.7-1.3,1.4-1.9,2.1c-0.6,0.7-1,1.3-1.3,1.7h-4.5
				c-0.2-0.4-0.6-0.9-1-1.4c-0.4-0.5-1.2-1.3-2.2-2.4v-0.3h2.5c1.2,0.8,2.2,1.5,2.9,2.2c0.7-0.7,1.7-1.5,2.9-2.2H189.2z"/>
		</g>
		<g>
			<path class="st2" d="M88,49.5v-9.3h2v7.6h3.8v1.6H88z"/>
			<path class="st2" d="M95.3,49.5v-9.3h2v9.3H95.3z"/>
			<path class="st2" d="M99.6,40.2h2.9c1.3,0,2.3,0.2,2.9,0.6c0.6,0.4,0.9,1,0.9,1.8c0,0.6-0.1,1-0.4,1.4c-0.3,0.4-0.6,0.6-1,0.6
				v0.1c0.6,0.1,1,0.4,1.3,0.7c0.3,0.4,0.4,0.8,0.4,1.4c0,0.8-0.3,1.5-0.9,2c-0.6,0.5-1.4,0.7-2.5,0.7h-3.5V40.2z M101.6,43.9h1.1
				c0.5,0,0.9-0.1,1.2-0.2c0.2-0.2,0.4-0.4,0.4-0.8c0-0.4-0.1-0.6-0.4-0.8c-0.3-0.2-0.7-0.2-1.2-0.2h-1V43.9z M101.6,45.4v2.4h1.3
				c0.5,0,0.9-0.1,1.2-0.3c0.3-0.2,0.4-0.5,0.4-1c0-0.8-0.5-1.2-1.6-1.2H101.6z"/>
			<path class="st2" d="M113.6,49.5h-5.3v-9.3h5.3v1.6h-3.4v2h3.1v1.6h-3.1v2.4h3.4V49.5z"/>
			<path class="st2" d="M117.5,45.9v3.6h-2v-9.3h2.7c1.3,0,2.2,0.2,2.8,0.7c0.6,0.5,0.9,1.2,0.9,2.1c0,0.5-0.1,1-0.4,1.5
				c-0.3,0.4-0.7,0.8-1.3,1c1.4,2.1,2.3,3.4,2.7,4h-2.2l-2.2-3.6H117.5z M117.5,44.3h0.6c0.6,0,1.1-0.1,1.4-0.3
				c0.3-0.2,0.4-0.5,0.4-1c0-0.4-0.2-0.8-0.5-0.9c-0.3-0.2-0.8-0.3-1.4-0.3h-0.6V44.3z"/>
			<path class="st2" d="M129.4,49.5h-5.3v-9.3h5.3v1.6h-3.4v2h3.1v1.6h-3.1v2.4h3.4V49.5z"/>
			<path class="st2" d="M135.3,41.7c-0.7,0-1.3,0.3-1.7,0.8c-0.4,0.6-0.6,1.3-0.6,2.3c0,2.1,0.8,3.1,2.3,3.1c0.6,0,1.4-0.2,2.4-0.5
				v1.6c-0.8,0.3-1.6,0.5-2.5,0.5c-1.3,0-2.4-0.4-3.1-1.2c-0.7-0.8-1.1-2-1.1-3.5c0-1,0.2-1.8,0.5-2.5c0.4-0.7,0.9-1.3,1.5-1.7
				c0.7-0.4,1.4-0.6,2.3-0.6c0.9,0,1.8,0.2,2.7,0.7l-0.6,1.6c-0.3-0.2-0.7-0.3-1-0.4C136,41.8,135.6,41.7,135.3,41.7z"/>
		</g>
	</g>
</g>
<path class="st0" d="z"/>
</svg>
